<svg width="28" height="28" viewBox="0 0 28 28" fill="none" xmlns="http://www.w3.org/2000/svg">
<mask id="mask0_1_119" style="mask-type:alpha" maskUnits="userSpaceOnUse" x="0" y="0" width="28" height="28">
<rect width="27.8203" height="27.8203" fill="#D9D9D9"/>
</mask>
<g mask="url(#mask0_1_119)">
<path d="M5.79779 25.5017C4.83181 25.5017 4.01072 25.1636 3.33453 24.4874C2.65835 23.8112 2.32025 22.9901 2.32025 22.0241V5.79562C2.32025 4.82964 2.65835 4.00856 3.33453 3.33237C4.01072 2.65618 4.83181 2.31808 5.79779 2.31808H22.0263C22.9923 2.31808 23.8134 2.65618 24.4896 3.33237C25.1658 4.00856 25.5038 4.82964 25.5038 5.79562V22.0241C25.5038 22.9901 25.1658 23.8112 24.4896 24.4874C23.8134 25.1636 22.9923 25.5017 22.0263 25.5017H5.79779ZM5.79779 23.1833H22.0263C22.3547 23.1833 22.6299 23.072 22.8516 22.8495C23.0742 22.6277 23.1855 22.3526 23.1855 22.0241V5.79562C23.1855 5.46719 23.0742 5.19169 22.8516 4.96913C22.6299 4.74734 22.3547 4.63644 22.0263 4.63644H5.79779C5.46936 4.63644 5.19386 4.74734 4.9713 4.96913C4.74951 5.19169 4.63861 5.46719 4.63861 5.79562V22.0241C4.63861 22.3526 4.74951 22.6277 4.9713 22.8495C5.19386 23.072 5.46936 23.1833 5.79779 23.1833ZM6.95697 20.865L11.5937 16.2282L13.6802 18.2858L16.2304 15.0691L20.8671 20.865H6.95697ZM9.27533 11.5915C8.63778 11.5915 8.09219 11.3643 7.63857 10.9099C7.18417 10.4563 6.95697 9.91071 6.95697 9.27316C6.95697 8.63562 7.18417 8.09003 7.63857 7.6364C8.09219 7.182 8.63778 6.9548 9.27533 6.9548C9.91288 6.9548 10.4589 7.182 10.9133 7.6364C11.3669 8.09003 11.5937 8.63562 11.5937 9.27316C11.5937 9.91071 11.3669 10.4563 10.9133 10.9099C10.4589 11.3643 9.91288 11.5915 9.27533 11.5915Z" fill="#5A6B87"/>
</g>
</svg>
