<svg width="6" height="6" viewBox="0 0 6 6" fill="none" xmlns="http://www.w3.org/2000/svg">
<mask id="mask0_1_263" style="mask-type:alpha" maskUnits="userSpaceOnUse" x="0" y="0" width="6" height="6">
<rect x="0.68988" y="0.68988" width="4.76069" height="4.76069" rx="2.38035" fill="#D9D9D9"/>
</mask>
<g mask="url(#mask0_1_263)">
<path d="M1.682 5.05373C1.5167 5.05373 1.37619 4.99588 1.26048 4.88017C1.14477 4.76445 1.08691 4.62395 1.08691 4.45865V1.68157C1.08691 1.51627 1.14477 1.37577 1.26048 1.26005C1.37619 1.14434 1.5167 1.08649 1.682 1.08649H4.45907C4.62438 1.08649 4.76488 1.14434 4.88059 1.26005C4.9963 1.37577 5.05416 1.51627 5.05416 1.68157V4.45865C5.05416 4.62395 4.9963 4.76445 4.88059 4.88017C4.76488 4.99588 4.62438 5.05373 4.45907 5.05373H1.682ZM1.682 4.65701H4.45907C4.51528 4.65701 4.56235 4.63797 4.60031 4.59988C4.63839 4.56193 4.65744 4.51485 4.65744 4.45865V1.68157C4.65744 1.62537 4.63839 1.57823 4.60031 1.54014C4.56235 1.50219 4.51528 1.48321 4.45907 1.48321H1.682C1.6258 1.48321 1.57865 1.50219 1.54057 1.54014C1.50262 1.57823 1.48364 1.62537 1.48364 1.68157V4.45865C1.48364 4.51485 1.50262 4.56193 1.54057 4.59988C1.57865 4.63797 1.6258 4.65701 1.682 4.65701ZM2.67544 4.26028C2.38203 4.26028 2.2351 3.90555 2.44256 3.69808L2.50673 3.63392C2.5992 3.54145 2.74895 3.54093 2.84206 3.63275C2.94287 3.73215 3.10764 3.72208 3.1956 3.61114L3.23605 3.56011C3.35439 3.41085 3.58077 3.41035 3.69975 3.55909L3.76589 3.64176C3.96531 3.89103 3.78783 4.26028 3.46861 4.26028H2.67544ZM2.27709 2.67339C2.16799 2.67339 2.07463 2.63451 1.997 2.55675C1.91924 2.47912 1.88036 2.38576 1.88036 2.27666C1.88036 2.16756 1.91924 2.0742 1.997 1.99657C2.07463 1.91882 2.16799 1.87994 2.27709 1.87994C2.38619 1.87994 2.47962 1.91882 2.55737 1.99657C2.635 2.0742 2.67381 2.16756 2.67381 2.27666C2.67381 2.38576 2.635 2.47912 2.55737 2.55675C2.47962 2.63451 2.38619 2.67339 2.27709 2.67339Z" fill="#5A6B87"/>
</g>
</svg>
