<svg width="14" height="14" viewBox="0 0 14 14" fill="none" xmlns="http://www.w3.org/2000/svg">
<circle cx="7" cy="7" r="7" fill="#01B99F"/>
<path d="M5.5947 8.38068L9.73969 4.19506C9.86849 4.065 10.0324 3.99997 10.2315 3.99997C10.4305 3.99997 10.5944 4.065 10.7232 4.19506C10.852 4.32512 10.9164 4.49066 10.9164 4.69166C10.9164 4.89266 10.852 5.0582 10.7232 5.18826L6.08648 9.87047C5.94597 10.0124 5.78204 10.0833 5.5947 10.0833C5.40735 10.0833 5.24343 10.0124 5.10292 9.87047L3.27631 8.02597C3.14751 7.8959 3.08311 7.73037 3.08311 7.52937C3.08311 7.32836 3.14751 7.16283 3.27631 7.03277C3.40511 6.90271 3.56904 6.83768 3.76809 6.83768C3.96715 6.83768 4.13107 6.90271 4.25987 7.03277L5.5947 8.38068Z" fill="white"/>
</svg>
